<?xml version="1.0" encoding="UTF-8" standalone="no"?>
<svg
   xmlns:dc="http://purl.org/dc/elements/1.1/"
   xmlns:cc="http://creativecommons.org/ns#"
   xmlns:rdf="http://www.w3.org/1999/02/22-rdf-syntax-ns#"
   xmlns:svg="http://www.w3.org/2000/svg"
   xmlns="http://www.w3.org/2000/svg"
   xmlns:sodipodi="http://sodipodi.sourceforge.net/DTD/sodipodi-0.dtd"
   xmlns:inkscape="http://www.inkscape.org/namespaces/inkscape"
   version="1.0"
   width="1783.000000pt"
   height="723.000000pt"
   viewBox="0 0 1783.000000 723.000000"
   preserveAspectRatio="xMidYMid meet"
   id="svg154"
   sodipodi:docname="hartner.svg"
   inkscape:version="0.92.5 (2060ec1f9f, 2020-04-08)">
  <metadata
     id="metadata160">
    <rdf:RDF>
      <cc:Work
         rdf:about="">
        <dc:format>image/svg+xml</dc:format>
        <dc:type
           rdf:resource="http://purl.org/dc/dcmitype/StillImage" />
        <dc:title></dc:title>
      </cc:Work>
    </rdf:RDF>
  </metadata>
  <defs
     id="defs158" />
  <sodipodi:namedview
     pagecolor="#ffffff"
     bordercolor="#666666"
     borderopacity="1"
     objecttolerance="10"
     gridtolerance="10"
     guidetolerance="10"
     inkscape:pageopacity="0"
     inkscape:pageshadow="2"
     inkscape:window-width="1920"
     inkscape:window-height="1001"
     id="namedview156"
     showgrid="false"
     inkscape:zoom="0.74032529"
     inkscape:cx="921.61102"
     inkscape:cy="482"
     inkscape:window-x="-9"
     inkscape:window-y="-9"
     inkscape:window-maximized="1"
     inkscape:current-layer="g152" />
  <g
     transform="translate(0.000000,723.000000) scale(0.100000,-0.100000)"
     fill="#000000"
     stroke="none"
     id="g152">
    <path
       d="M7925 6940 c9 -17 192 -335 406 -708 215 -372 443 -768 507 -879 65 -112 121 -201 126 -200 10 3 1046 1795 1046 1809 0 4 -473 8 -1050 8 l-1051 0 16 -30z m790 -78 c-6 -4 -36 -25 -68 -47 -129 -85 -216 -222 -243 -380 -9 -50 -17 -91 -17 -92 -3 -3 -292 501 -295 514 -3 10 61 13 314 13 175 0 314 -4 309 -8z m1125 3 c0 -7 -290 -508 -301 -519 -5 -6 -9 8 -9 35 0 149 -101 329 -237 425 -37 26 -72 51 -77 56 -6 4 133 8 307 8 174 0 317 -2 317 -5z m-781 -61 l31 -6 -39 -28 c-65 -47 -101 -116 -101 -189 1 -31 19 -94 45 -154 7 -16 1 -18 -76 -15 l-84 3 -77 145 c-43 80 -78 148 -78 152 0 12 89 60 148 79 57 18 172 25 231 13z m190 -99 c66 -34 147 -156 170 -256 15 -64 13 -156 -4 -224 -16 -61 -64 -156 -81 -162 -6 -2 -39 52 -74 119 -173 327 -190 362 -190 404 0 47 25 85 74 115 37 23 67 24 105 4z m-544 -300 c58 -110 112 -219 120 -241 19 -55 5 -103 -41 -143 -28 -25 -44 -31 -81 -31 -41 0 -50 4 -86 42 -22 23 -56 76 -76 117 -35 74 -36 79 -36 197 0 119 0 121 39 198 21 43 42 74 46 69 5 -4 57 -98 115 -208z m357 -114 c4 -3 46 -78 93 -165 66 -122 83 -161 73 -168 -36 -25 -98 -52 -143 -64 -61 -17 -186 -17 -239 -1 l-39 12 39 25 c99 65 130 179 80 300 -14 37 -21 67 -16 70 12 8 143 0 152 -9z m-307 -475 c93 -38 203 -50 302 -32 45 8 107 26 138 40 30 14 55 22 55 18 -1 -13 -277 -486 -286 -489 -5 -1 -60 86 -122 195 -62 108 -127 221 -144 251 -19 32 -26 52 -17 48 8 -3 41 -17 74 -31z"
       id="path86" />
    <path
       d="M1700 3395 l0 -835 155 0 155 0 0 385 0 385 648 -2 647 -3 3 -382 2 -383 155 0 155 0 0 835 0 835 -155 0 -155 0 -2 -352 -3 -353 -647 -3 -648 -2 0 355 0 355 -155 0 -155 0 0 -835z"
       id="path88" />
    <path
       d="M4627 4073 c-46 -87 -178 -333 -292 -548 -115 -214 -277 -518 -361 -675 l-153 -285 157 -3 c86 -1 161 -1 167 2 5 2 69 117 140 255 l130 250 448 1 448 0 15 -27 c8 -16 64 -129 125 -253 l110 -225 165 -3 165 -2 -340 672 c-187 370 -378 746 -423 835 l-83 163 -167 0 -166 0 -85 -157z m355 -320 c162 -335 228 -475 228 -484 0 -5 -155 -9 -345 -9 -233 0 -345 3 -345 10 0 6 35 79 79 163 43 84 122 236 175 340 54 103 99 187 102 187 3 0 51 -93 106 -207z"
       id="path90" />
    <path
       d="M6160 3395 l0 -835 155 0 155 0 0 355 0 355 303 0 303 0 314 -355 315 -354 183 -1 c101 0 181 4 178 8 -3 5 -145 165 -315 358 -171 192 -311 352 -311 357 0 4 10 7 23 7 47 0 195 42 263 75 102 49 166 110 211 203 37 74 38 79 38 186 0 105 -2 115 -33 181 -73 153 -241 250 -495 284 -48 7 -315 11 -683 11 l-604 0 0 -835z m1149 645 c251 -27 364 -116 364 -290 0 -113 -49 -188 -154 -235 -109 -48 -175 -54 -631 -55 l-418 0 0 295 0 295 373 0 c204 0 414 -5 466 -10z"
       id="path92" />
    <path
       d="M8130 4140 l0 -90 353 -2 352 -3 3 -743 2 -743 153 3 152 3 3 743 2 742 350 0 350 0 0 90 0 90 -860 0 -860 0 0 -90z"
       id="path94" />
    <path
       d="M10150 3395 l0 -835 140 0 140 0 0 660 c0 363 4 660 8 660 5 0 35 -28 68 -62 32 -35 126 -135 210 -223 83 -88 178 -189 211 -225 34 -36 218 -231 410 -435 l348 -370 158 -3 157 -3 0 836 0 835 -140 0 -140 0 0 -660 c0 -522 -3 -660 -12 -659 -10 0 -335 341 -597 626 -83 91 -476 508 -551 586 -41 43 -79 85 -83 93 -6 11 -39 14 -167 14 l-160 0 0 -835z"
       id="path96" />
    <path
       d="M12480 3395 l0 -835 840 0 840 0 0 90 0 90 -687 2 -688 3 -3 292 -2 293 582 2 583 3 3 93 3 92 -586 0 -585 0 0 265 0 265 670 0 670 0 0 90 0 90 -820 0 -820 0 0 -835z"
       id="path98" />
    <path
       d="M14498 4220 c-1 -5 -2 -381 0 -835 l2 -825 150 0 150 0 0 355 0 355 304 0 303 0 314 -354 314 -355 184 0 c174 -1 183 0 169 17 -8 9 -104 118 -214 241 -109 124 -245 276 -301 340 -57 64 -103 119 -103 123 0 5 10 8 23 8 47 0 195 42 263 75 150 72 238 194 250 345 23 276 -154 452 -504 505 -77 12 -223 15 -699 15 -392 0 -602 -3 -605 -10z m1243 -193 c177 -41 262 -130 262 -272 1 -117 -48 -192 -154 -240 -109 -48 -175 -54 -631 -55 l-418 0 0 296 0 296 438 -5 c347 -3 451 -8 503 -20z"
       id="path100" />
    <path
       d="M700 1785 l0 -25 8355 0 8355 0 0 25 0 25 -8355 0 -8355 0 0 -25z"
       id="path102" />
    <path
       d="M8543 1112 c-129 -46 -211 -162 -228 -322 -19 -182 64 -350 203 -413 70 -31 207 -30 280 2 89 40 150 125 176 244 6 27 6 27 -44 27 -32 0 -52 -5 -54 -12 -2 -7 -9 -32 -15 -56 -26 -94 -113 -149 -219 -139 -145 13 -224 116 -225 297 -2 190 88 302 243 303 30 0 72 -5 92 -12 41 -14 95 -69 110 -113 9 -26 14 -28 60 -28 50 0 50 0 43 28 -20 81 -78 151 -154 185 -66 29 -198 34 -268 9z"
       id="path104" />
    <path
       d="M13700 745 l0 -375 45 0 45 0 0 375 0 375 -45 0 -45 0 0 -375z"
       id="path106" />
    <path
       d="M3812 743 l3 -368 53 -3 52 -3 0 150 0 151 120 0 c65 0 143 5 172 11 187 40 218 331 43 410 -34 16 -68 19 -243 19 l-202 0 2 -367z m372 274 c49 -15 77 -52 83 -108 5 -57 -21 -108 -67 -131 -28 -14 -61 -18 -157 -18 l-123 0 0 135 0 135 113 -1 c61 0 130 -6 151 -12z"
       id="path108" />
    <path
       d="M5900 1055 l0 -55 45 0 45 0 0 55 0 55 -45 0 -45 0 0 -55z"
       id="path110" />
    <path
       d="M6650 1054 l0 -55 43 3 42 3 3 53 3 52 -45 0 -46 0 0 -56z"
       id="path112" />
    <path
       d="M10322 1058 l3 -53 43 -3 42 -3 0 55 0 56 -46 0 -45 0 3 -52z"
       id="path114" />
    <path
       d="M11940 1070 l0 -40 125 0 125 0 0 -330 0 -330 50 0 50 0 0 330 0 330 125 0 125 0 0 40 0 40 -300 0 -300 0 0 -40z"
       id="path116" />
    <path
       d="M9690 990 l0 -80 -46 0 -45 0 3 -37 c3 -37 4 -38 45 -41 l41 -3 4 -197 c2 -108 8 -205 12 -215 14 -29 61 -47 126 -47 l60 0 0 40 c0 39 -1 40 -34 40 -68 0 -66 -7 -66 196 l0 184 50 0 50 0 0 40 0 40 -50 0 -50 0 0 80 0 80 -50 0 -50 0 0 -80z"
       id="path118" />
    <path
       d="M10020 990 l0 -80 -45 0 -45 0 0 -40 0 -40 44 0 45 0 3 -205 c3 -197 4 -205 26 -227 18 -19 36 -23 97 -26 l75 -4 0 41 0 41 -39 0 c-68 0 -71 8 -71 206 l0 174 55 0 55 0 0 40 0 40 -55 0 -55 0 0 80 0 80 -45 0 -45 0 0 -80z"
       id="path120" />
    <path
       d="M4633 901 c-22 -11 -52 -34 -65 -51 l-23 -32 -5 44 c-5 43 -5 43 -47 46 l-43 3 0 -270 0 -271 44 0 44 0 4 168 c4 172 8 192 51 239 19 21 48 34 110 47 25 6 27 10 27 51 0 42 -2 45 -27 45 -16 0 -47 -9 -70 -19z"
       id="path122" />
    <path
       d="M4919 906 c-111 -40 -178 -158 -166 -293 7 -69 36 -144 70 -182 38 -41 115 -71 185 -71 115 0 195 56 226 158 7 21 4 22 -39 22 -38 0 -47 -4 -54 -22 -18 -46 -58 -72 -119 -75 -94 -7 -158 40 -169 125 l-6 42 203 0 203 0 -6 53 c-20 163 -107 258 -238 257 -30 -1 -70 -7 -90 -14z m145 -80 c38 -16 73 -61 82 -105 l7 -31 -152 0 c-150 0 -151 0 -151 23 0 32 35 84 72 107 39 23 95 26 142 6z"
       id="path124" />
    <path
       d="M5466 905 c-95 -34 -156 -139 -156 -269 0 -127 41 -205 132 -250 61 -31 156 -35 216 -10 65 27 118 91 136 167 6 26 5 27 -38 27 -44 0 -46 -1 -65 -45 -25 -56 -70 -85 -131 -85 -97 0 -153 72 -153 196 0 129 59 204 161 204 58 0 98 -23 122 -70 19 -37 24 -40 60 -40 34 0 40 3 40 20 0 61 -68 140 -137 159 -52 15 -140 13 -187 -4z"
       id="path126" />
    <path
       d="M6215 909 c-88 -33 -129 -102 -106 -179 17 -56 61 -86 172 -114 52 -14 103 -28 114 -32 73 -26 75 -108 4 -133 -83 -29 -183 -2 -208 57 -13 29 -19 32 -58 32 -50 0 -54 -11 -24 -76 32 -70 100 -104 209 -104 86 0 138 17 183 60 67 64 61 172 -13 218 -18 11 -82 34 -141 50 -113 31 -147 51 -147 87 0 36 35 58 98 62 69 5 101 -10 122 -54 14 -29 19 -33 59 -33 l44 0 -6 37 c-8 46 -34 82 -77 107 -39 23 -178 32 -225 15z"
       id="path128" />
    <path
       d="M7004 905 c-172 -64 -215 -345 -74 -482 47 -46 116 -67 201 -61 85 6 145 39 188 104 35 53 46 94 46 174 0 80 -11 121 -46 174 -46 69 -104 99 -198 103 -50 2 -90 -3 -117 -12z m193 -93 c48 -34 68 -85 68 -172 0 -123 -48 -188 -145 -198 -184 -17 -250 276 -86 380 41 25 120 20 163 -10z"
       id="path130" />
    <path
       d="M7655 909 c-17 -4 -44 -22 -60 -39 -34 -36 -47 -38 -45 -7 4 43 1 47 -40 47 l-40 0 0 -270 0 -270 45 0 45 0 0 178 c0 149 3 182 18 211 25 50 63 74 125 79 46 4 57 1 83 -21 l29 -25 5 -209 5 -208 45 0 45 0 0 210 c0 190 -2 214 -20 250 -36 73 -138 104 -240 74z"
       id="path132" />
    <path
       d="M10720 905 c-19 -9 -47 -28 -62 -42 l-28 -27 0 38 0 37 -42 -3 -43 -3 0 -265 0 -265 45 0 45 0 5 185 c4 157 8 190 23 213 44 68 149 90 204 43 l28 -24 3 -211 3 -211 45 0 45 0 -3 224 c-3 246 -4 250 -71 300 -37 27 -147 33 -197 11z"
       id="path134" />
    <path
       d="M11266 913 c-11 -3 -37 -16 -58 -30 -104 -65 -146 -246 -88 -379 60 -139 243 -186 345 -90 l35 33 0 -36 c0 -56 -18 -109 -49 -144 -26 -28 -35 -32 -97 -35 -57 -2 -75 1 -103 18 -18 12 -35 30 -38 41 -4 16 -14 19 -55 19 -42 0 -49 -3 -44 -16 3 -9 6 -19 6 -24 0 -5 12 -23 26 -40 79 -93 267 -106 362 -25 72 62 76 81 80 413 l4 292 -46 0 c-45 0 -46 -1 -46 -32 l0 -31 -23 21 c-46 44 -139 63 -211 45z m170 -104 c43 -40 57 -78 58 -154 0 -55 -5 -80 -24 -120 -34 -66 -64 -87 -129 -87 -92 1 -140 56 -149 169 -8 104 27 186 93 214 38 17 123 4 151 -22z"
       id="path136" />
    <path
       d="M12637 905 c-85 -32 -138 -100 -157 -200 -14 -76 -1 -168 31 -222 31 -50 94 -101 141 -114 54 -14 163 -7 204 14 186 96 186 417 0 514 -42 22 -170 27 -219 8z m190 -93 c47 -34 68 -85 68 -172 0 -90 -29 -152 -85 -182 -66 -34 -155 -17 -197 40 -48 66 -56 181 -17 258 42 80 157 109 231 56z"
       id="path138" />
    <path
       d="M13236 906 c-116 -43 -174 -149 -164 -297 11 -153 112 -249 262 -249 77 0 126 20 178 71 127 127 97 383 -55 461 -54 27 -166 34 -221 14z m163 -81 c73 -37 110 -133 91 -235 -22 -120 -120 -179 -224 -136 -132 55 -133 315 -2 372 41 18 100 17 135 -1z"
       id="path140" />
    <path
       d="M14011 908 c-50 -17 -98 -67 -106 -111 -17 -89 32 -144 157 -176 161 -41 188 -55 188 -97 0 -57 -39 -84 -122 -84 -67 0 -118 25 -138 67 -13 29 -19 33 -57 33 -51 0 -55 -13 -20 -80 17 -35 34 -51 77 -73 50 -26 63 -28 140 -25 99 4 148 24 188 76 21 27 26 46 26 87 0 93 -37 123 -207 166 -97 24 -137 48 -137 84 0 32 23 53 66 61 78 15 145 -11 165 -63 7 -19 16 -23 50 -23 l42 0 -6 37 c-8 46 -34 82 -77 107 -40 24 -176 32 -229 14z"
       id="path142" />
    <path
       d="M5900 640 l0 -270 45 0 45 0 0 270 0 270 -45 0 -45 0 0 -270z"
       id="path144" />
    <path
       d="M6650 640 l0 -270 45 0 45 0 0 270 0 270 -45 0 -45 0 0 -270z"
       id="path146" />
    <path
       d="M9082 698 c3 -193 5 -217 24 -253 29 -55 83 -85 157 -85 67 0 112 17 147 55 l25 27 5 -34 c5 -31 8 -33 48 -36 l42 -3 0 270 0 271 -45 0 -45 0 0 -173 c0 -159 -2 -176 -22 -217 -42 -82 -147 -107 -210 -51 l-33 29 -3 206 -3 206 -46 0 -45 0 4 -212z"
       id="path148" />
    <path
       d="M10320 640 l0 -270 45 0 45 0 0 270 0 270 -45 0 -45 0 0 -270z"
       id="path150" />
    <flowRoot
       xml:space="preserve"
       id="flowRoot162"
       style="fill:black;fill-opacity:1;stroke:none;font-family:sans-serif;font-style:normal;font-weight:normal;font-size:40px;line-height:1.25;letter-spacing:0px;word-spacing:0px"><flowRegion
         id="flowRegion164"><rect
           id="rect166"
           width="440.13333"
           height="60"
           x="268"
           y="494.66666" /></flowRegion><flowPara
         id="flowPara168"></flowPara></flowRoot>    <path
       style="fill:#008000;fill-opacity:1;stroke:none;stroke-width:1.3507576;stroke-opacity:1;paint-order:stroke fill markers"
       d="M 226.92727,511.17636 V 400.41424 H 247.18864 267.45 v 47.27652 47.27651 h 87.12386 87.12387 v -47.27651 -47.27652 h 20.26136 20.26136 v 110.76212 110.76212 h -20.26136 -20.26136 v -50.44813 -50.44814 l -14.39308,-0.88065 c -7.9162,-0.48436 -47.12194,-0.88065 -87.12387,-0.88065 H 267.45 v 51.32879 51.32878 h -20.26136 -20.26137 z"
       id="path170"
       inkscape:connector-curvature="0"
       transform="matrix(7.5000001,0,0,-7.5000001,0,7230)" />
    <path
       style="fill:#008000;fill-opacity:1;stroke:none;stroke-width:1.3507576;stroke-opacity:1;paint-order:stroke fill markers"
       d="m 513.11629,616.87314 c 1.42166,-2.78593 18.03727,-33.93778 36.92357,-69.22632 18.88629,-35.28854 44.31424,-82.85209 56.50654,-105.69678 l 22.16781,-41.5358 h 21.75541 21.75541 l 55.60717,109.86872 c 30.58396,60.4278 55.60719,110.27076 55.60719,110.76212 0,0.49138 -9.32274,0.8934 -20.7172,0.8934 H 742.00497 L 725.62428,588.16955 709.24359,554.40061 H 648.73624 588.2289 l -15.43169,29.37897 c -8.48742,16.15844 -16.5955,31.35446 -18.01794,33.76894 l -2.58627,4.38996 h -20.83077 -20.83077 z m 176.73116,-87.89936 5.68875,-0.91295 -5.85531,-12.83219 c -3.22042,-7.05771 -13.23822,-27.9947 -22.26178,-46.52664 -14.18313,-29.12829 -16.66434,-33.42996 -18.30929,-31.7428 -2.32073,2.38029 -46.67194,88.0033 -46.67194,90.10336 0,0.82181 1.67156,1.74743 3.71458,2.05692 6.26912,0.94969 77.64363,0.82544 83.69499,-0.1457 z"
       id="path172"
       inkscape:connector-curvature="0"
       transform="matrix(7.5000001,0,0,-7.5000001,0,7230)" />
    <path
       style="fill:#008000;fill-opacity:1;stroke:none;stroke-width:1.3507576;stroke-opacity:1;paint-order:stroke fill markers"
       d="M 822.61136,511.17636 V 400.41424 l 68.55095,0.0514 c 101.65033,0.0762 116.19389,1.37754 139.21639,12.45682 11.5273,5.54736 23.4207,17.14577 28.3178,27.61535 3.2846,7.02226 3.6623,9.36073 3.668,22.71034 0.01,14.12871 -0.2206,15.34316 -4.4764,23.99249 -5.5556,11.29085 -15.1086,20.88853 -26.237,26.35975 -9.5912,4.71549 -30.4439,11.08356 -36.29388,11.08356 -2.14563,0 -3.90116,0.53457 -3.90116,1.18793 0,1.3207 6.88886,9.31686 51.64154,59.94228 16.9151,19.13474 30.7547,35.09056 30.7547,35.45738 0,0.36683 -10.4853,0.62812 -23.3006,0.58067 l -23.3006,-0.0863 -41.71819,-47.19023 -41.71824,-47.19023 H 902.799 861.78333 v 47.27652 47.27651 h -19.58598 -19.58599 z m 156.29389,-9.46186 c 23.47335,-2.47317 38.67145,-11.69585 42.93555,-26.0546 5.4516,-18.35746 -1.6129,-35.80311 -17.5973,-43.45645 -2.9471,-1.41103 -9.91708,-3.73265 -15.48895,-5.15915 -8.96897,-2.29621 -16.8299,-2.67408 -68.55095,-3.29523 l -58.42027,-0.70161 v 40.01218 40.01218 l 52.34186,-0.0234 c 28.78802,-0.0128 57.93904,-0.61313 64.78006,-1.33391 z"
       id="path174"
       inkscape:connector-curvature="0"
       transform="matrix(7.5000001,0,0,-7.5000001,0,7230)" />
    <path
       style="fill:#008000;fill-opacity:1;stroke:none;stroke-width:1.3507576;stroke-opacity:1;paint-order:stroke fill markers"
       d="m 1178.8824,522.99549 -0.3464,-98.94299 -46.9388,-0.35519 -46.9389,-0.3552 v -11.46393 -11.46394 h 114.139 114.1391 v 11.48144 11.48144 h -46.6012 -46.6011 v 34.22236 c 0,18.82229 -0.4032,63.4986 -0.8959,99.28068 l -0.8959,65.05832 h -19.3567 -19.3567 z"
       id="path176"
       inkscape:connector-curvature="0"
       transform="matrix(7.5000001,0,0,-7.5000001,0,7230)" />
    <path
       style="fill:#008000;fill-opacity:1;stroke:none;stroke-width:1.3507576;stroke-opacity:1;paint-order:stroke fill markers"
       d="m 1353.4591,511.08128 v -110.8572 l 20.6037,0.43277 20.6036,0.43277 10.214,10.80606 c 20.7514,21.9543 57.0194,60.52333 93.8019,99.75306 20.7924,22.17584 43.0014,45.84075 49.3532,52.58869 7.3205,7.7771 12.1422,11.90216 13.1698,11.26705 1.234,-0.76261 1.6212,-21.79429 1.6212,-88.04609 v -87.04415 h 18.2352 18.2353 v 110.76212 110.76212 h -20.1792 -20.1792 l -82.6539,-87.79924 C 1430.8251,485.84966 1393.1912,446.34 1392.6538,446.34 c -2.0737,0 -2.7243,23.43402 -2.7243,98.13373 v 77.46475 h -18.2352 -18.2352 z"
       id="path178"
       inkscape:connector-curvature="0"
       transform="matrix(7.5000001,0,0,-7.5000001,0,7230)" />
    <path
       style="fill:#008000;fill-opacity:1;stroke:none;stroke-width:1.3507576;stroke-opacity:1;paint-order:stroke fill markers"
       d="M 1664.1333,511.17636 V 400.41424 h 108.736 108.736 v 11.48144 11.48144 h -89.15 -89.15 v 35.79508 35.79507 h 78.5128 78.5128 l -0.8443,4.22112 c -0.4643,2.32161 -0.8442,7.79218 -0.8442,12.15682 v 7.9357 h -77.6685 -77.6686 l 0.015,34.78201 c 0.01,19.1301 0.3916,37.06141 0.8521,39.84735 l 0.8372,5.06534 h 90.9994 90.9994 v 11.48144 11.48143 h -111.4375 -111.4375 z"
       id="path180"
       inkscape:connector-curvature="0"
       transform="matrix(7.5000001,0,0,-7.5000001,0,7230)" />
    <path
       style="fill:#008149;fill-opacity:1;stroke:none;stroke-width:1.3507576;stroke-opacity:1;paint-order:stroke fill markers"
       d="m 1933.9736,522.32011 c -0.401,-54.7901 -0.4204,-104.24625 -0.043,-109.90255 l 0.686,-10.28418 10.1686,-0.85957 c 15.4233,-1.30374 126.716,-0.97191 148.2138,0.44192 39.3519,2.58802 64.1012,14.91868 75.2018,37.46724 3.6414,7.39673 4.4442,10.76528 4.9156,20.62604 0.9983,20.87927 -6.0271,36.59679 -21.4242,47.93149 -9.1132,6.70875 -18.2432,10.50532 -35.055,14.57707 -6.3148,1.52942 -12.2789,2.98683 -13.2536,3.23869 -2.5396,0.65623 -2.9671,0.13693 40.9442,49.7437 21.5445,24.33903 39.3745,44.78958 39.6222,45.44566 0.2494,0.66083 -9.7799,1.19286 -22.4866,1.19286 h -22.9368 l -41.6744,-47.19206 -41.6744,-47.19207 -41.5358,-0.0844 -41.5358,-0.0845 v 47.27652 47.27651 h -18.7016 -18.7017 z m 155.2509,-20.60525 c 20.5512,-2.1653 33.9429,-8.70456 40.404,-19.72946 2.9103,-4.96606 3.8005,-8.4523 4.2332,-16.57703 0.4919,-9.23653 0.1573,-11.04708 -3.273,-17.70833 -4.6068,-8.94612 -11.9348,-14.79836 -23.6413,-18.88042 -10.3253,-3.60045 -40.5695,-5.25719 -98.0332,-5.37015 l -36.8081,-0.0724 v 39.84735 39.84735 l 52.3418,-0.0234 c 28.788,-0.0128 57.9375,-0.61297 64.7766,-1.33355 z"
       id="path182"
       inkscape:connector-curvature="0"
       transform="matrix(7.5000001,0,0,-7.5000001,0,7230)" />
    <path
       style="fill:#008149;fill-opacity:1;stroke:none;stroke-width:1.3507576;stroke-opacity:1;paint-order:stroke fill markers"
       d="M 226.92727,511.17636 V 400.41424 H 247.18864 267.45 v 47.27652 47.27651 h 87.12386 87.12387 v -47.27651 -47.27652 h 20.26136 20.26136 V 511.17636 621.93848 H 461.95909 441.69773 V 571.4804 521.02232 l -9.11762,-0.8611 c -5.01468,-0.47361 -44.22042,-0.86543 -87.12386,-0.87071 l -78.00625,-0.01 v 51.32879 51.32878 h -20.26136 -20.26137 z"
       id="path1557"
       inkscape:connector-curvature="0"
       transform="matrix(7.5000001,0,0,-7.5000001,0,7230)" />
    <path
       style="fill:#008149;fill-opacity:1;stroke:none;stroke-width:1.3507576;stroke-opacity:1;paint-order:stroke fill markers"
       d="m 527.95267,589.79733 c 9.39291,-17.67762 35.92108,-67.49883 58.9515,-110.71379 l 41.87348,-78.57264 21.61212,-0.0463 21.61212,-0.0463 55.1923,109.48557 c 30.35576,60.21707 54.77245,109.90716 54.25929,110.42245 -0.51314,0.51527 -9.54581,1.1219 -20.07259,1.34807 l -19.1396,0.41121 -16.20909,-33.8279 -16.20909,-33.82789 -61.0871,-0.0146 -61.08709,-0.0145 -2.21137,4.38996 c -1.21626,2.41448 -9.2147,17.6105 -17.77431,33.76894 l -15.56294,29.37897 h -20.61282 -20.61282 z m 167.00978,-61.28202 c 0.94225,-0.94425 -20.63806,-47.22945 -34.85011,-74.74614 -4.60449,-8.915 -9.18767,-16.20909 -10.18481,-16.20909 -0.99716,0 -6.36247,8.50977 -11.92292,18.9106 -13.3216,24.91809 -35.56673,69.20117 -35.56673,70.80223 0,0.69587 1.06372,1.56213 2.36382,1.92503 3.57006,0.9965 89.13161,0.34869 90.16075,-0.68263 z"
       id="path1559"
       inkscape:connector-curvature="0"
       transform="matrix(7.5000001,0,0,-7.5000001,0,7230)" />
    <path
       style="fill:#008149;fill-opacity:1;stroke:none;stroke-width:1.3507576;stroke-opacity:1;paint-order:stroke fill markers"
       d="M 822.61136,510.96727 V 399.99606 l 77.33087,0.8558 c 77.69978,0.85989 97.39934,1.85182 112.22917,5.65104 20.0932,5.14764 37.8072,18.17177 45.4109,33.38818 3.8476,7.69984 4.1132,9.20604 4.1132,23.33339 0,14.04585 -0.2802,15.66059 -4.0055,23.08482 -5.2635,10.48992 -10.4358,16.56677 -19.2928,22.66679 -7.6358,5.25896 -29.6424,13.43616 -40.52504,15.05826 -3.52886,0.52599 -6.4161,1.47956 -6.4161,2.11904 0,1.30718 2.79223,4.56852 48.43474,56.57194 24.6914,28.13252 32.0952,37.36814 30.6188,38.19438 -1.071,0.59937 -11.2256,0.92183 -22.5658,0.71658 l -20.6184,-0.37317 -41.29358,-46.60114 -41.29353,-46.60114 -41.47748,-0.35721 -41.47748,-0.35721 v 47.29604 47.29603 h -19.58598 -19.58599 z m 169.46177,-11.17855 c 21.71367,-6.34197 31.90127,-18.04611 31.74187,-36.46718 -0.1619,-18.7006 -10.5991,-30.0421 -33.15071,-36.02292 -9.77819,-2.59323 -15.72874,-2.91008 -69.78658,-3.71592 l -59.0969,-0.88096 10e-4,40.29272 0.001,40.29271 61.12178,-0.57418 c 52.95335,-0.49745 62.1971,-0.88825 69.16802,-2.92427 z"
       id="path1561"
       inkscape:connector-curvature="0"
       transform="matrix(7.5000001,0,0,-7.5000001,0,7230)" />
    <path
       style="fill:#008149;fill-opacity:1;stroke:none;stroke-width:1.3507576;stroke-opacity:1;paint-order:stroke fill markers"
       d="m 1179.2114,522.6578 v -99.28068 h -47.2766 -47.2765 v -11.48144 -11.48144 h 114.139 114.1391 v 11.48144 11.48144 h -46.381 -46.3809 l -0.8956,61.00584 c -0.4926,33.55321 -0.9008,75.03836 -0.9073,92.18921 -0.01,17.15084 -0.395,34.37453 -0.8635,38.27484 l -0.8518,7.09147 h -18.7225 -18.7224 z"
       id="path1563"
       inkscape:connector-curvature="0"
       transform="matrix(7.5000001,0,0,-7.5000001,0,7230)" />
    <path
       style="fill:#008149;fill-opacity:1;stroke:none;stroke-width:1.3507576;stroke-opacity:1;paint-order:stroke fill markers"
       d="M 1353.4591,510.97604 V 400.0136 l 20.599,0.89524 20.5991,0.89523 8.7799,9.1136 c 4.829,5.01248 41.1843,43.59989 80.7896,85.74981 39.6052,42.14991 73.1277,77.23461 74.4943,77.96599 1.8706,1.00114 2.685,0.80785 3.2951,-0.78209 0.4457,-1.16153 0.8104,-40.66006 0.8104,-87.77451 v -85.66263 h 18.2352 18.2353 v 110.76212 110.76212 h -19.9674 -19.9675 l -28.2368,-30.05435 C 1461.2494,517.51038 1393.5279,446.34 1392.6341,446.34 c -2.1768,0 -2.6816,17.78809 -2.6928,94.89072 l -0.012,80.70776 h -18.2352 -18.2352 z"
       id="path1565"
       inkscape:connector-curvature="0"
       transform="matrix(7.5000001,0,0,-7.5000001,0,7230)" />
    <path
       style="fill:#008149;fill-opacity:1;stroke:none;stroke-width:1.3507576;stroke-opacity:1;paint-order:stroke fill markers"
       d="M 1664.1333,511.17636 V 400.41424 h 108.736 108.736 v 11.48144 11.48144 h -89.15 -89.15 v 35.79508 35.79507 h 78.4885 c 71.0162,0 78.4104,0.20341 77.6685,2.13661 -0.4509,1.17514 -0.8199,6.64571 -0.8199,12.15682 v 10.02021 h -77.6685 -77.6686 l 0.018,36.80814 c 0.01,20.24448 0.385,38.17579 0.833,39.84735 l 0.8144,3.03921 h 91.0186 91.0186 v 11.48144 11.48143 h -111.4375 -111.4375 z"
       id="path1567"
       inkscape:connector-curvature="0"
       transform="matrix(7.5000001,0,0,-7.5000001,0,7230)" />
  </g>
</svg>
