<?xml version="1.0" encoding="UTF-8" standalone="no"?>
<svg
   xmlns:osb="http://www.openswatchbook.org/uri/2009/osb"
   xmlns:dc="http://purl.org/dc/elements/1.1/"
   xmlns:cc="http://creativecommons.org/ns#"
   xmlns:rdf="http://www.w3.org/1999/02/22-rdf-syntax-ns#"
   xmlns:svg="http://www.w3.org/2000/svg"
   xmlns="http://www.w3.org/2000/svg"
   xmlns:xlink="http://www.w3.org/1999/xlink"
   xmlns:sodipodi="http://sodipodi.sourceforge.net/DTD/sodipodi-0.dtd"
   xmlns:inkscape="http://www.inkscape.org/namespaces/inkscape"
   width="6550"
   height="5050"
   version="1.1"
   id="svg3959"
   sodipodi:docname="logo-dark.svg"
   inkscape:version="0.92.5 (2060ec1f9f, 2020-04-08)">
  <metadata
     id="metadata3963">
    <rdf:RDF>
      <cc:Work
         rdf:about="">
        <dc:format>image/svg+xml</dc:format>
        <dc:type
           rdf:resource="http://purl.org/dc/dcmitype/StillImage" />
        <dc:title></dc:title>
      </cc:Work>
    </rdf:RDF>
  </metadata>
  <sodipodi:namedview
     pagecolor="#ffffff"
     bordercolor="#666666"
     borderopacity="1"
     objecttolerance="10"
     gridtolerance="10"
     guidetolerance="10"
     inkscape:pageopacity="0"
     inkscape:pageshadow="2"
     inkscape:window-width="1920"
     inkscape:window-height="1001"
     id="namedview3961"
     showgrid="false"
     inkscape:zoom="0.06608998"
     inkscape:cx="501.53699"
     inkscape:cy="1918.087"
     inkscape:window-x="-9"
     inkscape:window-y="-9"
     inkscape:window-maximized="1"
     inkscape:current-layer="_2527427753056" />
  <defs
     id="defs3932">
    <linearGradient
       inkscape:collect="always"
       id="linearGradient6295">
      <stop
         style="stop-color:#090f37;stop-opacity:1;"
         offset="0"
         id="stop6291" />
      <stop
         style="stop-color:#090f37;stop-opacity:0;"
         offset="1"
         id="stop6293" />
    </linearGradient>
    <linearGradient
       id="linearGradient6275"
       osb:paint="solid">
      <stop
         style="stop-color:#000000;stop-opacity:1;"
         offset="0"
         id="stop6273" />
    </linearGradient>
    <style
       type="text/css"
       id="style3930"><![CDATA[
    .fil0 {fill:#090F37}
    .fil2 {fill:#374CA7}
    .fil3 {fill:#BBBBCE}
    .fil1 {fill:#C5C5C5}
   ]]></style>
    <linearGradient
       inkscape:collect="always"
       xlink:href="#linearGradient6295"
       id="linearGradient6297"
       x1="773.21377"
       y1="4738.1344"
       x2="1444.9699"
       y2="4738.1344"
       gradientUnits="userSpaceOnUse" />
  </defs>
  <g
     id="g3937">
    <title
       id="title3934">background</title>
    <rect
       fill="none"
       id="canvas_background"
       height="5052"
       width="6552"
       y="-1"
       x="-1" />
  </g>
  <g
     id="g3957">
    <title
       id="title3939">Layer 1</title>
    <g
       id="Слой_x0020_1">
      <metadata
         transform="translate(0,-14.285711288452148) translate(0,-14.285711288452148) translate(0,-14.285711288452148) translate(0,-14.285711288452148) translate(0,-14.285711288452148) translate(0,-14.285711288452148) translate(0,-14.285711288452148) translate(0,-14.285711288452148) translate(0,-14.285711288452148) translate(0,14.285711288452148) translate(0,14.285711288452148) translate(0,14.285711288452148) translate(0,14.285711288452148) translate(0,14.285711288452148) translate(0,14.285711288452148) translate(0,14.285711288452148) translate(0,14.285711288452148) translate(0,14.285711288452148) translate(0,-14.285711288452148) translate(0,14.285711288452148) translate(0,14.285711288452148) translate(0,-14.285711288452148) translate(0,-14.285711288452148) translate(0,14.285711288452148) translate(0,-14.285711288452148) translate(0,-14.285711288452148) translate(0,-14.285711288452148) translate(0,-14.285711288452148) translate(0,-14.285711288452148) translate(0,-14.285711288452148) translate(0,-14.285711288452148) translate(0,-14.285711288452148) translate(0,-14.285711288452148) translate(0,-14.285711288452148) translate(0,-14.285711288452148) translate(0,-14.285711288452148) translate(0,-14.285711288452148) translate(0,-14.285711288452148) translate(0,-14.285711288452148) translate(0,-14.285711288452148) translate(0,-14.285711288452148) translate(0,-14.285711288452148) translate(0,-14.285711288452148) translate(0,-14.285711288452148) translate(0,-14.285711288452148) translate(0,-14.285711288452148) translate(0,-14.285711288452148) translate(0,-14.285711288452148) translate(0,-14.285711288452148) translate(0,-14.285711288452148) translate(0,-14.285711288452148) translate(0,-14.285711288452148) translate(0,-14.285711288452148) translate(0,-14.285711288452148) translate(0,-14.285711288452148) translate(0,-14.285711288452148) translate(0,-14.285711288452148) translate(0,-14.285711288452148) translate(0,-14.285711288452148) translate(0,-14.285711288452148) translate(0,-14.285711288452148) translate(0,-14.285711288452148) translate(0,-14.285711288452148) translate(0,-14.285711288452148) translate(0,-14.285711288452148) translate(0,-14.285711288452148) translate(0,-14.285711288452148) translate(0,-14.285711288452148) translate(-14.285711288452148,0) translate(-14.285711288452148,0) translate(-14.285711288452148,0) translate(-14.285711288452148,0) translate(-14.285711288452148,0) translate(-14.285711288452148,0) translate(-14.285711288452148,0) translate(-14.285711288452148,0) translate(-14.285711288452148,0) translate(-14.285711288452148,0) translate(-14.285711288452148,0) translate(-14.285711288452148,0) translate(-14.285711288452148,0) translate(-14.285711288452148,0) translate(-14.285711288452148,0) translate(-14.285711288452148,0) translate(-14.285711288452148,0) translate(-14.285711288452148,0) translate(-14.285711288452148,0) translate(-14.285711288452148,0) translate(-14.285711288452148,0) translate(-14.285711288452148,0) translate(-14.285711288452148,0) translate(-14.285711288452148,0) translate(-14.285711288452148,0) translate(-14.285711288452148,0) translate(-14.285711288452148,0) translate(-14.285711288452148,0) translate(-14.285711288452148,0) translate(-14.285711288452148,0) translate(-14.285711288452148,0) translate(-14.285711288452148,0) translate(-14.285711288452148,0) translate(-14.285711288452148,0) translate(-14.285711288452148,0) translate(-14.285711288452148,0) translate(-14.285711288452148,0) translate(-14.285711288452148,0) translate(-14.285711288452148,0) translate(-14.285711288452148,0) translate(-14.285711288452148,0) translate(-14.285711288452148,0) translate(-14.285711288452148,0) translate(-14.285711288452148,0) translate(-14.285711288452148,0) translate(-14.285711288452148,0) translate(1,1) "
         id="CorelCorpID_0Corel-Layer" />
      <g
         id="_2527427753056">
        <path
           id="svg_1"
           d="m2976.847281,2001.098703l-2.8,2061.22l575.9,0.01l0.02,-2094.85l965.57,-2.55c14.45,-18.84 8.47,-103.97 8.47,-133.16l0,-448.73c-199.82,0 -931.06,-12.17 -1069.25,14.49c-153.84,29.67 -269,89.11 -349.72,192.14c-65.38,83.44 -144.15,256.22 -128.19,411.43z"
           class="fil0"
           style="fill:#595959;fill-opacity:1" />
        <path
           id="svg_2"
           d="m1001.867281,2288.968703c0,447.96 145.33,927.67 386.01,1273.47c23.75,34.13 74.05,111.24 105.06,132c0,-67.74 0,-135.47 0,-203.2c0,-253.46 -23.66,-134.15 -156,-479c-78.58,-204.75 -131.87,-489.21 -131.87,-714.8c0,-318.67 80.95,-647 219.95,-931.53c68.11,-139.41 160.43,-268.13 255.28,-388.18c467.34,-591.55 1319.51,-890.05 2076.67,-698.79c147.81,37.34 244.01,73.18 372.74,126.79c90.86,37.84 160.46,81.23 242.3,130.24c151.73,90.86 365.11,268.36 474.99,405.54c205.43,256.46 346.94,488.35 432.35,820.72c81.02,315.33 92.1,665.8 18.5,987.32c-46.21,201.86 -130.22,423.53 -235.7,594.03c-42.45,68.6 -30.15,80.37 -30.14,181.52c0,70.56 0,141.12 0,211.67c83.89,-56.18 256.08,-374.6 313.39,-490.94c84.81,-172.17 155.03,-426.01 183.69,-620.65c87.44,-593.86 -69.24,-1159.23 -354.84,-1587.59l-174.06,-232.34l-198.83,-199.1c-252.58,-223.15 -436.04,-332.34 -755.06,-455.68c-207.78,-80.33 -442.32,-123.11 -680.76,-130.57l-151.52,0c-324.52,10.01 -647.32,84.25 -911.17,217.25c-271.31,136.76 -429.71,244.99 -651.16,466.43c-340.6,340.59 -649.82,906.1 -649.82,1585.39z"
           class="fil1"
           style="fill:#595959;fill-opacity:1" />
        <path
           id="svg_3"
           d="m2000.937281,1967.238703l711.2,0c21.52,-92.37 4.82,-92.5 59.08,-203.39c74.66,-152.59 219.84,-298.97 380.43,-356.17c32.1,-11.43 24.92,0.16 43.09,-24.64l-1193.8,0l0,584.2z"
           class="fil2"
           style="fill:#595959;fill-opacity:1" />
        <polygon
           id="svg_5"
           points="4473.21044921875,5023.711359024048 5023.54052734375,5023.711359024048 5023.54052734375,4888.241632461548 4634.0703125,4888.241632461548 4634.0703125,4812.041437149048 4938.8701171875,4812.041437149048 4938.8701171875,4676.571710586548 4634.0703125,4676.571710586548 4634.0703125,4591.911554336548 5023.54052734375,4591.911554336548 5023.54052734375,4456.441339492798 4473.21044921875,4456.441339492798 "
           class="fil2"
           style="fill:#595959;fill-opacity:1" />
        <path
           id="svg_6"
           d="m5946.407281,5023.708703l152.4,0c0,-122.03 -18.78,-211.67 25.4,-211.67l270.93,0l0,211.67l152.4,0l0,-567.27l-152.4,0l0,220.13l-296.33,0l0,-220.13l-152.4,0l0,567.27z"
           class="fil2"
           style="fill:#595959;fill-opacity:1" />
        <path
           id="svg_7"
           d="m2602.067281,4608.838703c4.53,54.38 63.21,123.42 67.74,177.8l-152.4,0c9.85,-42.29 20.55,-54.12 36.29,-90.7c14.72,-34.19 21.94,-67.73 48.37,-87.1zm-338.66,389.47l0,33.86c133.18,0 136.98,13.92 160.08,-43.11c10.26,-25.31 20.42,-42.22 26.18,-66.95l287.87,0c5.82,24.98 15.34,39.25 23.89,60.77c24.94,62.74 17.65,49.29 162.38,49.29c0,-94.25 -134.79,-329.49 -183.49,-434.58l-62.05,-141.15l-169.33,0l-121.31,268.15c-19.06,41.12 -124.22,246.42 -124.22,273.72z"
           class="fil0"
           style="fill:#595959;fill-opacity:1" />
        <path
           id="svg_8"
           d="m5201.337281,4710.438703c0,94.6 1.64,187.97 67.07,254.66c56.36,57.44 127.55,72.29 202.67,75.54l128.19,0c190.82,0 162.11,-40.48 161.37,-84.17c-0.48,-28.46 -0.5,-56.69 -0.5,-85.16c-80.58,18.77 -276.51,64.18 -357.54,1.94c-60.39,-46.39 -42.22,-215.32 -17.19,-249.68c24.6,-33.77 59,-35.36 109.67,-42.95c79.05,-11.85 191.21,11.01 265.06,28.22l0,-143.93c-145.92,-34 -152.73,-25.4 -304.8,-25.4c-106.29,0 -204.69,68.28 -234.35,155.12c-11.82,34.61 -19.65,72.83 -19.65,115.81z"
           class="fil2"
           style="fill:#595959;fill-opacity:1" />
        <path
           id="svg_9"
           d="m1603.007281,4574.968703c0,44.74 95.87,25.4 220.13,25.4l0,406.4c0,40.44 56.68,25.4 160.87,25.4l0,-431.8l220.13,0l0,-143.93l-601.13,0l0,118.53z"
           class="fil0"
           style="fill:#595959;fill-opacity:1" />
        <path
           id="svg_10"
           d="m19.737281,4600.368703l211.67,0l0,406.4c0,40.44 56.68,25.4 160.86,25.4l0,-431.8l203.2,0c39.06,0 25.4,-47.59 25.4,-143.93l-601.13,0l0,143.93z"
           class="fil0"
           style="fill:#595959;fill-opacity:1" />
        <polygon
           id="svg_11"
           points="3694.2705078125,4591.911554336548 3914.41015625,4591.911554336548 3914.41015625,5023.711359024048 4075.2705078125,5023.711359024048 4075.2705078125,4591.911554336548 4295.41015625,4591.911554336548 4295.41015625,4456.441339492798 3694.2705078125,4456.441339492798 "
           class="fil2"
           style="fill:#595959;fill-opacity:1" />
        <path
           id="svg_12"
           d="m3101.607281,5032.168703l524.93,0c19.51,0 25.4,-5.89 25.4,-25.4l0,-118.53l-389.47,0l0,-431.8l-160.86,0l0,575.73z"
           class="fil0"
           style="fill:#595959;fill-opacity:1" />
        <path
           id="svg_13"
           d="m2976.847281,2001.098703c-25.26,31.48 -10.71,469.19 -10.71,508l0,1557.87l592.67,0l0,-2091.27l931.5,0.22c41.15,-6.63 8.02,2.91 25.23,-10.99l-965.57,2.55l-0.02,2094.85l-575.9,-0.01l2.8,-2061.22z"
           class="fil3"
           style="fill:#595959;fill-opacity:1" />
        <path
           class="fil0"
           d="m 1060.2758,4582.4224 c 218.6077,0 219.9745,4.431 219.9745,220.6187 0,118.9447 -246.256,116.5078 -307.26331,62.0868 -38.31409,-34.1644 -91.62749,-282.7055 87.28881,-282.7055 z m 120.6558,458.2163 h -146.0382 c -315.36984,0 -298.2738,-405.0073 -196.8742,-519.9028 98.761,-111.907 413.2637,-114.1902 533.158,-12.5266 93.867,79.5854 101.4607,382.1655 -4.7062,466.1607 -61.0075,48.2584 -120.2461,62.5987 -185.5394,66.2687 z"
           id="path3763"
           inkscape:connector-curvature="0"
           style="clip-rule:evenodd;fill:#595959;fill-rule:evenodd;stroke-width:1.00075936;image-rendering:optimizeQuality;shape-rendering:geometricPrecision;text-rendering:geometricPrecision;fill-opacity:1" />
      </g>
    </g>
  </g>
</svg>
